<svg xmlns="http://www.w3.org/2000/svg" viewBox="0 0 313.06 137.05"><defs><style>.cls-1{fill:#231f20}.cls-2{fill:none}</style></defs><title>logo-full</title><g id="Layer_2" data-name="Layer 2"><g id="Layer_1-2" data-name="Layer 1"><path d="M150.72,46.74a2.1,2.1,0,0,1-.45-1.36,28.16,28.16,0,0,1,.21-3.11l.11-1,.11-2c0-.89-.13-2.89-.38-6s-.37-5.09-.37-6c0-.07,0-.22,0-.44s0-.55,0-1,.06-1.14.06-1.88q0-2.81-.54-3.57c-.21,0-.68,0-1.39.12l-1.5.07a2.48,2.48,0,0,1-1.23-.29.85.85,0,0,1-.53-.74c0-.31.43-.58,1.28-.81a36.82,36.82,0,0,1,6.37-.65l2.19-.08a2.23,2.23,0,0,1,1.17.31.88.88,0,0,1,.54.77.85.85,0,0,1-.45.74,2.07,2.07,0,0,1-1.15.29l-1,0q-.42,0-1,0h-.53a33.25,33.25,0,0,1,.37,4.71l0,2.46q-.06,1.11-.06,2.49c0,1.23.07,2.7.22,4.41.18,2.12.26,3.59.26,4.41a33.91,33.91,0,0,0,.22,3.45,34.59,34.59,0,0,1,.21,3.46c0,1.25-.51,1.87-1.55,1.87A1.55,1.55,0,0,1,150.72,46.74Z" class="cls-1"/><path d="M167.3,40.7l0-2.19.06-1.76v-.5a5.12,5.12,0,0,0,.05-.73c0-.05-.05-.11-.16-.19s-.16-.14-.16-.19v0a4.21,4.21,0,0,1-1,.07,11.87,11.87,0,0,1-1.71-.15l-1.71-.19v4.41c0,.67.05,1.71.16,3.15s.16,2.45.16,3.14a1.39,1.39,0,0,1-.43,1,1.54,1.54,0,0,1-1.12.42c-.68,0-1.16-.47-1.45-1.42a14,14,0,0,1-.43-3.8l.11-3.1c0-.87.05-1.79.05-2.77V34.68a3.6,3.6,0,0,0-.05-.81v-.19l.16-2.23c0-1,0-2.41-.16-4.33s-.16-3.36-.16-4.33A1,1,0,0,1,160,22a1.63,1.63,0,0,1,1.07-.34c1.14,0,1.71.76,1.71,2.3l-.11,4.75c-.07,1.44-.1,3-.1,4.8a14.21,14.21,0,0,0,2.88.19h2a1.11,1.11,0,0,0,.11-.46c0-1.23-.11-3-.32-5.45a52.07,52.07,0,0,1-.38-5.48.83.83,0,0,1,.46-.71,2,2,0,0,1,1.09-.29,4.22,4.22,0,0,1,1.07.19l.48.16q0,5.45.54,14.53l.48,9.71a1,1,0,0,1-.56.84,2.76,2.76,0,0,1-1.31.31Q167.31,47,167.3,40.7Z" class="cls-1"/><path d="M177.22,47.18a1.13,1.13,0,0,1-.61-.84V44.57a4.82,4.82,0,0,1-.05-.8c0-.54-.06-1.36-.16-2.46l-.11-2.45c0-1.26.05-3.12.16-5.6.14-2.23.21-4.09.21-5.6a11.35,11.35,0,0,0-.16-1.61,14.25,14.25,0,0,1-.16-1.61q0-2.73,2.25-2.73a20,20,0,0,1,4.09.5c1.55.33,2.32.73,2.32,1.19a.9.9,0,0,1-.45.71,3.62,3.62,0,0,1-1.1.52,27.94,27.94,0,0,0-4.06-.77c0,.38.05.93.05,1.65,0,1,0,1.94-.05,2.76-.11,1.23-.16,2.15-.16,2.76l.16.62.86,0a10.63,10.63,0,0,1,1.07,0c1.71,0,2.56.36,2.56,1.07a.82.82,0,0,1-.48.71,2.38,2.38,0,0,1-1.23.29,9.87,9.87,0,0,1-1.5-.08h-1.33c.07.67.1,1.64.1,2.92s0,2.43-.05,3.45c-.11,1.56-.16,2.72-.16,3.49a7.66,7.66,0,0,0,.11,2.15l1.76,0c.61,0,1.34,0,2.19,0,1.36,0,2,.31,2,.92a.92.92,0,0,1-.67.83,4.18,4.18,0,0,1-1.63.28h-4.55A2.38,2.38,0,0,1,177.22,47.18Z" class="cls-1"/><path d="M196.85,53.4l.16-7.3.17-7.31q0-4-.25-12.06t-.25-12.06v-.35a9.57,9.57,0,0,1,.41-2.85c.34-1.07,1.22-1.61,2.65-1.61,3.87,0,6.93.89,9.2,2.68a8.54,8.54,0,0,1,3.39,7.06,9.93,9.93,0,0,1-2,5.59,12.92,12.92,0,0,1-4.72,4.33,16.5,16.5,0,0,1,7.08,6,14.92,14.92,0,0,1,2.28,8,10.19,10.19,0,0,1-2,5.17A13.37,13.37,0,0,1,206.45,54a16.16,16.16,0,0,1-5.46.89h-.34C198.11,54.89,196.85,54.39,196.85,53.4Zm8.28-27.32a22.54,22.54,0,0,0,2.32-4,11.82,11.82,0,0,1,.82-1.66V18.3a4.75,4.75,0,0,0-1.82-3.45,6,6,0,0,0-4.14-1.66c-.77,0-1.16.61-1.16,1.84q0,3.92.17,7l.16,6.59A5.46,5.46,0,0,0,205.13,26.08Zm3.14,23.05a7.18,7.18,0,0,0,2.4-5.41,18.91,18.91,0,0,0-.62-5,9.13,9.13,0,0,0-1.61-3.47,14.52,14.52,0,0,0-1.82-1.9,5.35,5.35,0,0,0-1.58-1l-.66-.18h-3q.42,6.82.41,19.66A10.75,10.75,0,0,0,208.27,49.13Z" class="cls-1"/><path d="M226.89,54.65a6.73,6.73,0,0,1-2.82.6,2.43,2.43,0,0,1-1.69-.63,1.78,1.78,0,0,1-.71-1.33q0-5,.58-13.31.5-8.85.5-13.25v-.41a47.3,47.3,0,0,1-.5-5.59q0-5.64,2.9-5.64a2.42,2.42,0,0,1,1.45.45,1.27,1.27,0,0,1,.62,1,15.39,15.39,0,0,1-.25,2.25,15.81,15.81,0,0,0-.25,2.26q0,4,.09,7.19c.05,2.1.08,4.47.08,7.13a5.94,5.94,0,0,0-.42,2.49v.71l-.16,4.7c-.11,1.38-.17,3-.17,4.75q0,4.09,2.74,4.1l.53,0c.25,0,.6,0,1,0s1.13-.06,1.9-.06q4.49,0,4.48,1.78a1.19,1.19,0,0,1-.75,1,4.59,4.59,0,0,1-1.82.53A32.59,32.59,0,0,0,226.89,54.65Z" class="cls-1"/><path d="M258.76,54.53a1.54,1.54,0,0,1-.91-1.54,37,37,0,0,0-.82-6.06l-.34-1.25-8.19-.89a48.58,48.58,0,0,0-1.41,5.53c-.33,1.94-.86,3.22-1.58,3.86a2.37,2.37,0,0,1-1.65.53,3.83,3.83,0,0,1-1.82-.44,1.29,1.29,0,0,1-.83-1.1l.16-.3.09-.24a200.55,200.55,0,0,0,8.28-30.11,7.52,7.52,0,0,1,.08-.81c.06-.37.11-.92.17-1.63a34.89,34.89,0,0,1,.53-3.5,3.88,3.88,0,0,1,1-2h2.81a4.65,4.65,0,0,1,2,.39,1.22,1.22,0,0,1,.83,1.1,76.79,76.79,0,0,0,1.74,13.42,85,85,0,0,1,1.65,12.84,10.29,10.29,0,0,0,.42,1.84,8.46,8.46,0,0,1,.41,1.78,30.91,30.91,0,0,0,.83,3.56,19.56,19.56,0,0,1,.75,3.69v.06A1.6,1.6,0,0,1,261.58,55,7.13,7.13,0,0,1,258.76,54.53Zm-2.89-13.18a90.88,90.88,0,0,0-1.33-13.67l-.83-6.17q-3.56,13.95-4.88,21.08c.83.4,3.25.72,7.28.95A8.5,8.5,0,0,1,255.87,41.35Z" class="cls-1"/><path d="M276.35,54.86a15,15,0,0,1-3.1-.86q-5.55-2.55-5.55-14V35.17c0-1.59,0-3,.08-4.25s.17-2.6.33-4.07a18.22,18.22,0,0,1,.75-3.77,15.88,15.88,0,0,1,1.66-3.3A7.62,7.62,0,0,1,273,17.11a13.47,13.47,0,0,1,3.77-1.6,17.1,17.1,0,0,1,5.13-.66,3.61,3.61,0,0,1,1.91.42,1.23,1.23,0,0,1,.66,1.07,1.42,1.42,0,0,1-.54,1.07,2.19,2.19,0,0,1-1.28.53h-3.9a3.69,3.69,0,0,0-2.89,1.49,8.61,8.61,0,0,0-1.74,3.86A31.3,31.3,0,0,0,273,30.42v.29l-.16,5.71c-.12,1.7-.17,3.62-.17,5.76a21.7,21.7,0,0,0,.25,3.68,9,9,0,0,0,1.41,3.56,5.64,5.64,0,0,0,3.39,2.32,9.8,9.8,0,0,0,2.73.36,3.91,3.91,0,0,0,1.83-.48,4.22,4.22,0,0,1,1.78.33,1.05,1.05,0,0,1,.7,1c0,1.54-1.52,2.32-4.55,2.32A20.54,20.54,0,0,1,276.35,54.86Z" class="cls-1"/><path d="M306.69,52.45q-3.22-4.46-6.38-14.67c-.61-1.86-1.1-3.58-1.49-5.17a17.61,17.61,0,0,0-3,10.34v11c0,.91-.55,1.37-1.66,1.37a3.7,3.7,0,0,1-2-.51,1.58,1.58,0,0,1-.78-1.4v-18a96.34,96.34,0,0,1,.83-9.63,76.23,76.23,0,0,0,.82-9.62A2.58,2.58,0,0,1,295.43,15a3,3,0,0,1,1.82.54,1.57,1.57,0,0,1,.74,1.3v.18c-.71.87-1.07,4.48-1.07,10.81V30L300,25.66q2.82-4.21,5.3-7.24,2.33-3,3.4-3a5.75,5.75,0,0,1,2.27.41c.64.28,1,.68,1,1.19l-2,2.38q-6.21,7.18-7,8.31c0,.68,0,1.27-.08,1.78l-.08,1.79q0,2.55,2.85,9.53c1.91,4.66,3.5,7.73,4.77,9.24l1.07,1.07a4.21,4.21,0,0,1,1.57,2.73,1.28,1.28,0,0,1-.7,1.1,2.93,2.93,0,0,1-1.61.44C309.48,55.42,308.12,54.43,306.69,52.45Z" class="cls-1"/><path d="M148.19,131.17c-1.35-.54-2-1.18-2-1.91a2.26,2.26,0,0,1,.76-1.78,3.12,3.12,0,0,1,2.17-.69,14.32,14.32,0,0,1,3.69.73,18.42,18.42,0,0,0,3.31.73,7.09,7.09,0,0,0,4.39-1.5,10.45,10.45,0,0,0,3.12-4,18.59,18.59,0,0,0,2.29-8.21,22.37,22.37,0,0,0-1.72-8.27,39,39,0,0,0-4.65-8.44l-2-2.93q-3.18-4.56-4.9-7.21a33.56,33.56,0,0,1-3-5.75,21.11,21.11,0,0,1-1.91-8.49,12.67,12.67,0,0,1,1.59-6.21,14.37,14.37,0,0,1,12.66-7.13,10.88,10.88,0,0,1,4.46,1,6.6,6.6,0,0,1,3.06,2.42l-2.17,1.92a10.52,10.52,0,0,1-5-.91,7,7,0,0,0-4,1.59,9.67,9.67,0,0,0-2.61,3.25,8.51,8.51,0,0,0-.77,3.47,20.27,20.27,0,0,0,1.34,7.07,32,32,0,0,0,3.5,6.81l8.91,12.78a29.07,29.07,0,0,1,3.44,7.4,27.54,27.54,0,0,1,1.27,8.21,18.28,18.28,0,0,1-4.07,11.33,15.18,15.18,0,0,1-5.6,4.33,17.87,17.87,0,0,1-7.64,1.6A23.25,23.25,0,0,1,148.19,131.17Z" class="cls-1"/><path d="M203.11,115.29l.13-5.21.13-4.2v-1.19a10.62,10.62,0,0,0,.13-1.73c0-.12-.13-.27-.39-.46s-.38-.33-.38-.45V102a9.72,9.72,0,0,1-2.29.18,27.23,27.23,0,0,1-4.07-.37l-4.08-.45v10.5c0,1.58.13,4.08.38,7.48s.39,5.85.39,7.49a3.22,3.22,0,0,1-1,2.38,3.64,3.64,0,0,1-2.67,1c-1.62,0-2.76-1.13-3.44-3.38a32.85,32.85,0,0,1-1-9l.25-7.39q.14-3.1.13-6.58V101a8.62,8.62,0,0,0-.13-1.92v-.45l.39-5.3q0-3.47-.39-10.32t-.38-10.32a2.39,2.39,0,0,1,1-1.91,3.93,3.93,0,0,1,2.55-.83q4.07,0,4.07,5.48l-.26,11.33q-.25,5.12-.25,11.41a34.74,34.74,0,0,0,6.88.46h4.71a2.59,2.59,0,0,0,.25-1.1q0-4.38-.76-13a121.88,121.88,0,0,1-.89-13.05,2,2,0,0,1,1.08-1.69,4.75,4.75,0,0,1,2.61-.69,10.14,10.14,0,0,1,2.54.46l1.15.36q0,13,1.27,34.61l1.15,23.1a2.22,2.22,0,0,1-1.34,2,6.37,6.37,0,0,1-3.12.73Q203.12,130.35,203.11,115.29Z" class="cls-1"/><path d="M226.74,130.72a2.72,2.72,0,0,1-1.46-2v-4.2a12.07,12.07,0,0,1-.13-1.92c0-1.28-.13-3.22-.38-5.84l-.26-5.85q0-4.47.39-13.33.49-7.93.5-13.33a27.47,27.47,0,0,0-.38-3.83,31.39,31.39,0,0,1-.38-3.84q0-6.48,5.35-6.48a47.32,47.32,0,0,1,9.74,1.18q5.53,1.2,5.54,2.83a2.14,2.14,0,0,1-1.09,1.69A8.78,8.78,0,0,1,241.57,77a68.12,68.12,0,0,0-9.67-1.83q.12,1.36.12,3.93,0,3.65-.12,6.57-.39,4.38-.39,6.58l.39,1.46,2-.09c.68-.06,1.53-.1,2.55-.1,4.07,0,6.11.86,6.11,2.56a2,2,0,0,1-1.14,1.69,5.62,5.62,0,0,1-2.93.68A27.12,27.12,0,0,1,235,98.3h-3.18q.25,2.39.25,6.94t-.12,8.22q-.39,5.57-.39,8.31c0,3.41.09,5.11.26,5.11l4.2-.09q2.16-.09,5.22-.09c3.22,0,4.84.73,4.84,2.19,0,.86-.53,1.51-1.59,2a10,10,0,0,1-3.89.68H229.73A5.58,5.58,0,0,1,226.74,130.72Z" class="cls-1"/><path d="M259.43,130.72a2.72,2.72,0,0,1-1.46-2v-4.2a12.07,12.07,0,0,1-.13-1.92c0-1.28-.13-3.22-.38-5.84l-.26-5.85q0-4.47.39-13.33c.33-5.29.51-9.74.51-13.33a27.84,27.84,0,0,0-.39-3.83,31.39,31.39,0,0,1-.38-3.84q0-6.48,5.35-6.48a47.24,47.24,0,0,1,9.74,1.18Q278,72.47,278,74.1a2.14,2.14,0,0,1-1.09,1.69A8.78,8.78,0,0,1,274.26,77a68.12,68.12,0,0,0-9.67-1.83q.12,1.36.12,3.93,0,3.65-.12,6.57c-.26,2.92-.38,5.11-.38,6.58l.38,1.46,2-.09c.68-.06,1.53-.1,2.55-.1,4.08,0,6.11.86,6.11,2.56a2,2,0,0,1-1.14,1.69,5.62,5.62,0,0,1-2.93.68,27.12,27.12,0,0,1-3.57-.18h-3.18q.26,2.39.25,6.94t-.12,8.22c-.26,3.71-.38,6.48-.38,8.31,0,3.41.08,5.11.25,5.11l4.2-.09q2.16-.09,5.22-.09c3.22,0,4.84.73,4.84,2.19,0,.86-.53,1.51-1.59,2a9.94,9.94,0,0,1-3.88.68H262.42A5.58,5.58,0,0,1,259.43,130.72Z" class="cls-1"/><path d="M291.85,131q-1.67-4.83-1.66-13.42l.25-8.13q.26-3.64.26-8.12a4.6,4.6,0,0,1-.76-2.29v-.27c.84-1.16,1.27-3.77,1.27-7.85l.13-4.2c.08-1.34.12-2.84.12-4.48a28.18,28.18,0,0,0-1-8.49,5.63,5.63,0,0,1,1.28-2.24,2.83,2.83,0,0,1,2.16-1h5.6a15.79,15.79,0,0,1,6.24,1.14,9,9,0,0,1,4.07,3.25,15.33,15.33,0,0,1,2.55,8.85c0,2.44,0,4.36-.13,5.76a14.82,14.82,0,0,1-1.27,4.84,5.36,5.36,0,0,1-1.08,2,22.56,22.56,0,0,1-2,1.87,17.68,17.68,0,0,1-5.85,2.92,26.88,26.88,0,0,1-4.33,1.19v9.77l.25,5.85.26,2.83q.51,5.12.51,8.67a2.23,2.23,0,0,1-1.27,1.87,5.51,5.51,0,0,1-2.93.78Zm13.49-47.85A17.28,17.28,0,0,0,305,79a5.22,5.22,0,0,0-1-1.79A4.93,4.93,0,0,0,302,76.11a8.45,8.45,0,0,0-3.06-.54,3.93,3.93,0,0,0-1.4-.1v5.21q0,5.38.13,9.59,0,4.74.13,6.21v2.1Q305.33,97.76,305.34,83.14Z" class="cls-1"/><path d="M52.46,40.62c.65.49,1.26,1,1.91,1.54,3.14,2.61,6.69,5.56,13.28,5.56,8.29,0,16.42-6.4,16.42-12.93a45.66,45.66,0,0,1,.31-4.67c-.38,0-.76.08-1.14.13a30.15,30.15,0,0,0-8.87,2.65,29.76,29.76,0,0,0-9.51,7,29.92,29.92,0,0,0-9.52-7,31.88,31.88,0,0,0-5.67-2c-.4-.1-.79-.19-1.19-.27C49.19,34.82,50.4,39,52.46,40.62Z" class="cls-2"/><path d="M84.55,19.63a54.68,54.68,0,0,0,10.61-2.54c6-2.32,8.49-12.45,8.6-12.88l.2-.83L103.22,3c-3.62-2-6.74-3-9.54-3a13.63,13.63,0,0,0-6.57,1.87l-.47.24c-2.1,1-7,1.94-9.7,2.33A9.59,9.59,0,0,0,74.53,3c-1.5-.63-2.88-1.14-4.1-1.53A11.83,11.83,0,0,0,66.89.91,11.54,11.54,0,0,0,61.57,2.2c-2.09,1.07-5,2.64-7.42,4.2a13.39,13.39,0,0,0-6.68-1.92,12.17,12.17,0,0,1-1.91-.25A10.75,10.75,0,0,0,43.39,4h-.11l-.91,0c-.54,0-1.17,0-1.88,0-5.14,0-8.31.86-10,2.71a3.18,3.18,0,0,0-.8,2.94c.82,3.51,7.25,6.12,7.32,6.15.92.37,2.87,1.26,4.92,2.2,2.33,1.06,4.92,2.24,6.67,3a77.56,77.56,0,0,0,1,10,31.88,31.88,0,0,1,5.67,2,29.92,29.92,0,0,1,9.52,7,29.76,29.76,0,0,1,9.51-7,30.15,30.15,0,0,1,8.87-2.65c.31-3.07.81-6.45,1.16-8.65A12,12,0,0,0,84.55,19.63Z" class="cls-2"/><path d="M124.07,70a27.47,27.47,0,0,0-20.23-26.51,12.84,12.84,0,0,0-1.22-5.07C100,33,93.93,30,86.84,30c-.81,0-1.63.05-2.46.13a45.66,45.66,0,0,0-.31,4.67c0,6.53-8.13,12.93-16.42,12.93-6.59,0-10.14-2.95-13.28-5.56-.65-.54-1.26-1-1.91-1.54-2.06-1.58-3.27-5.8-4-10A27.45,27.45,0,0,0,42.86,30c-7.09,0-13.2,3-15.77,8.41a13.05,13.05,0,0,0-1.22,6.38,27.5,27.5,0,0,0-12.81,39,24.06,24.06,0,0,0,31,34.37,20.15,20.15,0,0,0,34.22,1.17,24.7,24.7,0,0,0,37-29.14A27.39,27.39,0,0,0,124.07,70Z" class="cls-1"/><path d="M87.13,3.1C84.64,4.34,78.87,5.31,76.6,5.61A9.44,9.44,0,0,0,74.1,4c-1.58-.66-2.9-1.14-4-1.48a10.48,10.48,0,0,0-8,.67,86,86,0,0,0-7.91,4.53l-.34-.21a12.37,12.37,0,0,0-6.38-1.92c-1.5,0-2.7-.51-4-.51h-.18c-.6,0-1.6,0-2.79,0-3,0-7.3.29-9.13,2.33-2.58,2.89,3.82,6.4,6.1,7.31S46.73,19,49.73,20.12c.19,7.55,1.68,16.89,4.08,18.73,3.88,2.95,6.83,6.64,13.84,6.64S81.84,40,81.84,34.79A107,107,0,0,1,83.3,21.42a10.14,10.14,0,0,0,.07-2.75,56.2,56.2,0,0,0,11.39-2.62c5.48-2.13,7.92-12.11,7.92-12.11-3.84-2.12-6.72-2.83-9-2.83A13.56,13.56,0,0,0,87.13,3.1Z" class="cls-1"/><path d="M133.6,69.22a32,32,0,0,0-23.55-30.88,15,15,0,0,0-1.43-5.9c-3.59-7.56-13-11-23.29-9.38l-.73,4.07c.75-.07,1.5-.11,2.24-.11,8.56,0,15.47,3.78,18.46,10.1a15.46,15.46,0,0,1,1.29,4.09A30.45,30.45,0,0,1,118.67,91,27.68,27.68,0,0,1,79,123.2,23.13,23.13,0,0,1,43,121.83a26.74,26.74,0,0,1-9.54,1.73A27,27,0,0,1,9.65,83.68,30.44,30.44,0,0,1,22.91,42.9a15.83,15.83,0,0,1,1.49-5.77C27.4,30.8,34.3,27,42.87,27a30.17,30.17,0,0,1,5.15.47l-.67-3.71c-11.54-3.06-22.74.26-26.71,8.66a15.36,15.36,0,0,0-1.42,7.43A32,32,0,0,0,4.3,85.25a28,28,0,0,0,36.12,40,23.49,23.49,0,0,0,39.87,1.36A28.76,28.76,0,0,0,123.34,92.7,31.9,31.9,0,0,0,133.6,69.22Z" class="cls-1"/></g></g></svg>