<svg xmlns="http://www.w3.org/2000/svg" viewBox="0 0 133.6 137.05"><defs><style>.cls-1{fill:none}.cls-2{fill:#231f20}</style></defs><title>logomark</title><g id="Layer_2" data-name="Layer 2"><g id="Layer_1-2" data-name="Layer 1"><path d="M52.46,40.62c.65.49,1.26,1,1.91,1.54,3.14,2.61,6.69,5.56,13.28,5.56,8.29,0,16.42-6.4,16.42-12.93a45.66,45.66,0,0,1,.31-4.67c-.38,0-.76.08-1.14.13a30.15,30.15,0,0,0-8.87,2.65,29.76,29.76,0,0,0-9.51,7,29.92,29.92,0,0,0-9.52-7,31.88,31.88,0,0,0-5.67-2c-.4-.1-.79-.19-1.19-.27C49.19,34.82,50.4,39,52.46,40.62Z" class="cls-1"/><path d="M84.55,19.63a54.68,54.68,0,0,0,10.61-2.54c6-2.32,8.49-12.45,8.6-12.88l.2-.83L103.22,3c-3.62-2-6.74-3-9.54-3a13.63,13.63,0,0,0-6.57,1.87l-.47.24c-2.1,1-7,1.94-9.7,2.33A9.59,9.59,0,0,0,74.53,3c-1.5-.63-2.88-1.14-4.1-1.53A11.83,11.83,0,0,0,66.89.91,11.54,11.54,0,0,0,61.57,2.2c-2.09,1.07-5,2.64-7.42,4.2a13.39,13.39,0,0,0-6.68-1.92,12.17,12.17,0,0,1-1.91-.25A10.75,10.75,0,0,0,43.39,4h-.11l-.91,0c-.54,0-1.17,0-1.88,0-5.14,0-8.31.86-10,2.71a3.18,3.18,0,0,0-.8,2.94c.82,3.51,7.25,6.12,7.32,6.15.92.37,2.87,1.26,4.92,2.2,2.33,1.06,4.92,2.24,6.67,3a77.56,77.56,0,0,0,1,10,31.88,31.88,0,0,1,5.67,2,29.92,29.92,0,0,1,9.52,7,29.76,29.76,0,0,1,9.51-7,30.15,30.15,0,0,1,8.87-2.65c.31-3.07.81-6.45,1.16-8.65A12,12,0,0,0,84.55,19.63Z" class="cls-1"/><path d="M124.07,70a27.47,27.47,0,0,0-20.23-26.51,12.84,12.84,0,0,0-1.22-5.07C100,33,93.93,30,86.84,30c-.81,0-1.63.05-2.46.13a45.66,45.66,0,0,0-.31,4.67c0,6.53-8.13,12.93-16.42,12.93-6.59,0-10.14-2.95-13.28-5.56-.65-.54-1.26-1-1.91-1.54-2.06-1.58-3.27-5.8-4-10A27.45,27.45,0,0,0,42.86,30c-7.09,0-13.2,3-15.77,8.41a13.05,13.05,0,0,0-1.22,6.38,27.5,27.5,0,0,0-12.81,39,24.06,24.06,0,0,0,31,34.37,20.15,20.15,0,0,0,34.22,1.17,24.7,24.7,0,0,0,37-29.14A27.39,27.39,0,0,0,124.07,70Z" class="cls-2"/><path d="M87.13,3.1C84.64,4.34,78.87,5.31,76.6,5.61A9.44,9.44,0,0,0,74.1,4c-1.58-.66-2.9-1.14-4-1.48a10.48,10.48,0,0,0-8,.67,86,86,0,0,0-7.91,4.53l-.34-.21a12.37,12.37,0,0,0-6.38-1.92c-1.5,0-2.7-.51-4-.51h-.18c-.6,0-1.6,0-2.79,0-3,0-7.3.29-9.13,2.33-2.58,2.89,3.82,6.4,6.1,7.31S46.73,19,49.73,20.12c.19,7.55,1.68,16.89,4.08,18.73,3.88,2.95,6.83,6.64,13.84,6.64S81.84,40,81.84,34.79A107,107,0,0,1,83.3,21.42a10.14,10.14,0,0,0,.07-2.75,56.2,56.2,0,0,0,11.39-2.62c5.48-2.13,7.92-12.11,7.92-12.11-3.84-2.12-6.72-2.83-9-2.83A13.56,13.56,0,0,0,87.13,3.1Z" class="cls-2"/><path d="M133.6,69.22a32,32,0,0,0-23.55-30.88,15,15,0,0,0-1.43-5.9c-3.59-7.56-13-11-23.29-9.38l-.73,4.07c.75-.07,1.5-.11,2.24-.11,8.56,0,15.47,3.78,18.46,10.1a15.46,15.46,0,0,1,1.29,4.09A30.45,30.45,0,0,1,118.67,91,27.68,27.68,0,0,1,79,123.2,23.13,23.13,0,0,1,43,121.83a26.74,26.74,0,0,1-9.54,1.73A27,27,0,0,1,9.65,83.68,30.44,30.44,0,0,1,22.91,42.9a15.83,15.83,0,0,1,1.49-5.77C27.4,30.8,34.3,27,42.87,27a30.17,30.17,0,0,1,5.15.47l-.67-3.71c-11.54-3.06-22.74.26-26.71,8.66a15.36,15.36,0,0,0-1.42,7.43A32,32,0,0,0,4.3,85.25a28,28,0,0,0,36.12,40,23.49,23.49,0,0,0,39.87,1.36A28.76,28.76,0,0,0,123.34,92.7,31.9,31.9,0,0,0,133.6,69.22Z" class="cls-2"/></g></g></svg>